<svg width="204" height="204" viewBox="0 0 204 204" fill="none" xmlns="http://www.w3.org/2000/svg">
<path d="M1.08528e-05 101.35C1.20313e-05 114.83 2.63832 128.179 7.7643 140.633C12.8903 153.087 20.4035 164.403 29.8751 173.935C39.3467 183.467 50.5911 191.028 62.9663 196.186C75.3415 201.345 88.6052 204 102 204L102 101.35L1.08528e-05 101.35Z" fill="#D58159"/>
<path d="M1.29936 2.24348e-06H102.65V101.35H1.29936V2.24348e-06Z" fill="#015C5D"/>
<path d="M0 2.24348e-06H20.7898V101.35L1.08528e-05 101.35L0 2.24348e-06Z" fill="#009395"/>
<path d="M41.5796 2.24348e-06H61.0701V101.35H41.5796V2.24348e-06Z" fill="#009395"/>
<path d="M81.8599 2.24348e-06H102.65V101.35H81.8599V2.24348e-06Z" fill="#009395"/>
<path d="M101.35 2.24348e-06H204V204H101.35V2.24348e-06Z" fill="#D9D9D9"/>
<path d="M102 101.35C108.74 101.35 115.414 100.04 121.641 97.4929C127.868 94.9462 133.526 91.2135 138.292 86.5079C143.058 81.8023 146.839 76.2159 149.418 70.0677C151.997 63.9195 153.325 57.3299 153.325 50.6752C153.325 44.0204 151.997 37.4308 149.418 31.2826C146.839 25.1344 143.058 19.548 138.292 14.8424C133.526 10.1368 127.868 6.40408 121.641 3.85742C115.414 1.31075 108.74 -2.87159e-07 102 0V101.35Z" fill="#F6F6F6"/>
<path d="M189.707 155.274C189.707 175.726 173.127 192.306 152.675 192.306C132.223 192.306 115.643 175.726 115.643 155.274C115.643 134.822 132.223 118.242 152.675 118.242C173.127 118.242 189.707 134.822 189.707 155.274Z" fill="#015C5D"/>
<path d="M178.013 154.624C178.013 168.259 166.96 179.312 153.325 179.312C139.69 179.312 128.637 168.259 128.637 154.624C128.637 140.989 139.69 129.936 153.325 129.936C166.96 129.936 178.013 140.989 178.013 154.624Z" fill="#009395"/>
<path d="M161.121 155.274C161.121 159.938 157.34 163.72 152.675 163.72C148.011 163.72 144.229 159.938 144.229 155.274C144.229 150.609 148.011 146.828 152.675 146.828C157.34 146.828 161.121 150.609 161.121 155.274Z" fill="#D58159"/>
</svg>
