<svg width="334" height="51" viewBox="0 0 334 51" fill="none" xmlns="http://www.w3.org/2000/svg">
<rect width="88" height="51" rx="3" fill="#FFEBAE"/>
<path d="M34.163 21.2727V30H32.8463V21.2727H34.163ZM38.2966 30.1278C37.7682 30.1278 37.2966 29.9929 36.8819 29.723C36.4699 29.4503 36.1461 29.0625 35.9103 28.5597C35.6773 28.054 35.5609 27.4474 35.5609 26.7401C35.5609 26.0327 35.6787 25.4276 35.9145 24.9247C36.1532 24.4219 36.4799 24.0369 36.8947 23.7699C37.3094 23.5028 37.7796 23.3693 38.3052 23.3693C38.7114 23.3693 39.0381 23.4375 39.2853 23.5739C39.5353 23.7074 39.7285 23.8636 39.8648 24.0426C40.004 24.2216 40.112 24.3793 40.1887 24.5156H40.2654V21.2727H41.5395V30H40.2952V28.9815H40.1887C40.112 29.1207 40.0012 29.2798 39.8563 29.4588C39.7143 29.6378 39.5182 29.794 39.2682 29.9276C39.0182 30.0611 38.6944 30.1278 38.2966 30.1278ZM38.5779 29.0412C38.9444 29.0412 39.254 28.9446 39.5069 28.7514C39.7626 28.5554 39.9557 28.2841 40.0864 27.9375C40.2199 27.5909 40.2867 27.1875 40.2867 26.7273C40.2867 26.2727 40.2214 25.875 40.0907 25.5341C39.96 25.1932 39.7682 24.9276 39.5154 24.7372C39.2626 24.5469 38.9501 24.4517 38.5779 24.4517C38.1944 24.4517 37.8748 24.5511 37.6191 24.75C37.3634 24.9489 37.1702 25.2202 37.0395 25.5639C36.9117 25.9077 36.8478 26.2955 36.8478 26.7273C36.8478 27.1648 36.9131 27.5582 37.0438 27.9077C37.1745 28.2571 37.3677 28.5341 37.6234 28.7386C37.8819 28.9403 38.2001 29.0412 38.5779 29.0412ZM46.0471 30.1321C45.4022 30.1321 44.8468 29.9943 44.3809 29.7188C43.9178 29.4403 43.5599 29.0497 43.307 28.5469C43.057 28.0412 42.932 27.4489 42.932 26.7699C42.932 26.0994 43.057 25.5085 43.307 24.9972C43.5599 24.4858 43.9122 24.0866 44.3639 23.7997C44.8184 23.5128 45.3497 23.3693 45.9576 23.3693C46.3269 23.3693 46.6849 23.4304 47.0315 23.5526C47.3781 23.6747 47.6891 23.8665 47.9647 24.1278C48.2403 24.3892 48.4576 24.7287 48.6167 25.1463C48.7758 25.5611 48.8553 26.0653 48.8553 26.6591V27.1108H43.6522V26.1562H47.6068C47.6068 25.821 47.5386 25.5241 47.4022 25.2656C47.2659 25.0043 47.0741 24.7983 46.8269 24.6477C46.5826 24.4972 46.2957 24.4219 45.9661 24.4219C45.6082 24.4219 45.2957 24.5099 45.0286 24.6861C44.7644 24.8594 44.5599 25.0866 44.415 25.3679C44.273 25.6463 44.2019 25.9489 44.2019 26.2756V27.0213C44.2019 27.4588 44.2786 27.831 44.432 28.1378C44.5883 28.4446 44.8056 28.679 45.084 28.8409C45.3624 29 45.6877 29.0795 46.0599 29.0795C46.3014 29.0795 46.5215 29.0455 46.7204 28.9773C46.9193 28.9062 47.0911 28.8011 47.236 28.6619C47.3809 28.5227 47.4917 28.3509 47.5684 28.1463L48.7744 28.3636C48.6778 28.7187 48.5045 29.0298 48.2545 29.2969C48.0073 29.5611 47.6963 29.767 47.3213 29.9148C46.9491 30.0597 46.5244 30.1321 46.0471 30.1321ZM52.0419 30.1449C51.6271 30.1449 51.2521 30.0682 50.9169 29.9148C50.5817 29.7585 50.316 29.5327 50.12 29.2372C49.9268 28.9418 49.8302 28.5795 49.8302 28.1506C49.8302 27.7812 49.9013 27.4773 50.0433 27.2386C50.1853 27 50.3771 26.8111 50.6186 26.6719C50.8601 26.5327 51.1299 26.4276 51.4282 26.3565C51.7265 26.2855 52.0305 26.2315 52.3402 26.1946C52.7322 26.1491 53.0504 26.1122 53.2947 26.0838C53.539 26.0526 53.7166 26.0028 53.8274 25.9347C53.9382 25.8665 53.9936 25.7557 53.9936 25.6023V25.5724C53.9936 25.2003 53.8885 24.9119 53.6782 24.7074C53.4709 24.5028 53.1612 24.4006 52.7493 24.4006C52.3203 24.4006 51.9822 24.4957 51.7351 24.6861C51.4907 24.8736 51.3217 25.0824 51.228 25.3125L50.0305 25.0398C50.1726 24.642 50.3799 24.321 50.6527 24.0767C50.9282 23.8295 51.245 23.6506 51.603 23.5398C51.9609 23.4261 52.3373 23.3693 52.7322 23.3693C52.9936 23.3693 53.2706 23.4006 53.5632 23.4631C53.8586 23.5227 54.1342 23.6335 54.3899 23.7955C54.6484 23.9574 54.8601 24.1889 55.0248 24.4901C55.1896 24.7884 55.272 25.1761 55.272 25.6534V30H54.0277V29.1051H53.9765C53.8942 29.2699 53.7706 29.4318 53.6058 29.5909C53.441 29.75 53.2294 29.8821 52.9709 29.9872C52.7123 30.0923 52.4027 30.1449 52.0419 30.1449ZM52.3189 29.1222C52.6711 29.1222 52.9723 29.0526 53.2223 28.9134C53.4751 28.7741 53.6669 28.5923 53.7976 28.3679C53.9311 28.1406 53.9978 27.8977 53.9978 27.6392V26.7955C53.9524 26.8409 53.8643 26.8835 53.7336 26.9233C53.6058 26.9602 53.4595 26.9929 53.2947 27.0213C53.1299 27.0469 52.9694 27.071 52.8132 27.0938C52.6569 27.1136 52.5263 27.1307 52.4211 27.1449C52.174 27.1761 51.9481 27.2287 51.7436 27.3026C51.5419 27.3764 51.3799 27.483 51.2578 27.6222C51.1385 27.7585 51.0788 27.9403 51.0788 28.1676C51.0788 28.483 51.1953 28.7216 51.4282 28.8835C51.6612 29.0426 51.9581 29.1222 52.3189 29.1222Z" fill="black" fill-opacity="0.8"/>
<rect x="123" width="88" height="51" rx="3" fill="#B9DEDC"/>
<path d="M145.784 27.1705H147.079L147.991 28.3594L148.422 28.8878L149.875 30.7841H148.528L147.557 29.5185L147.224 29.0582L145.784 27.1705ZM150.156 25.6364C150.156 26.5682 149.986 27.3693 149.645 28.0398C149.304 28.7074 148.836 29.2216 148.243 29.5824C147.652 29.9403 146.98 30.1193 146.227 30.1193C145.471 30.1193 144.797 29.9403 144.203 29.5824C143.612 29.2216 143.146 28.706 142.805 28.0355C142.464 27.3651 142.294 26.5653 142.294 25.6364C142.294 24.7045 142.464 23.9048 142.805 23.2372C143.146 22.5668 143.612 22.0526 144.203 21.6946C144.797 21.3338 145.471 21.1534 146.227 21.1534C146.98 21.1534 147.652 21.3338 148.243 21.6946C148.836 22.0526 149.304 22.5668 149.645 23.2372C149.986 23.9048 150.156 24.7045 150.156 25.6364ZM148.852 25.6364C148.852 24.9261 148.737 24.3281 148.507 23.8423C148.28 23.3537 147.967 22.9844 147.569 22.7344C147.175 22.4815 146.727 22.3551 146.227 22.3551C145.724 22.3551 145.275 22.4815 144.881 22.7344C144.486 22.9844 144.173 23.3537 143.943 23.8423C143.716 24.3281 143.602 24.9261 143.602 25.6364C143.602 26.3466 143.716 26.946 143.943 27.4347C144.173 27.9205 144.486 28.2898 144.881 28.5426C145.275 28.7926 145.724 28.9176 146.227 28.9176C146.727 28.9176 147.175 28.7926 147.569 28.5426C147.967 28.2898 148.28 27.9205 148.507 27.4347C148.737 26.946 148.852 26.3466 148.852 25.6364ZM155.71 27.2855V23.4545H156.988V30H155.735V28.8665H155.667C155.517 29.2159 155.275 29.5071 154.943 29.7401C154.613 29.9702 154.203 30.0852 153.711 30.0852C153.291 30.0852 152.919 29.9929 152.595 29.8082C152.274 29.6207 152.021 29.3438 151.836 28.9773C151.654 28.6108 151.563 28.1577 151.563 27.6179V23.4545H152.838V27.4645C152.838 27.9105 152.961 28.2656 153.208 28.5298C153.456 28.794 153.777 28.9261 154.171 28.9261C154.41 28.9261 154.647 28.8665 154.883 28.7472C155.122 28.6278 155.319 28.4474 155.475 28.206C155.635 27.9645 155.713 27.6577 155.71 27.2855ZM161.389 30.1321C160.744 30.1321 160.189 29.9943 159.723 29.7188C159.26 29.4403 158.902 29.0497 158.649 28.5469C158.399 28.0412 158.274 27.4489 158.274 26.7699C158.274 26.0994 158.399 25.5085 158.649 24.9972C158.902 24.4858 159.254 24.0866 159.706 23.7997C160.161 23.5128 160.692 23.3693 161.3 23.3693C161.669 23.3693 162.027 23.4304 162.374 23.5526C162.72 23.6747 163.031 23.8665 163.307 24.1278C163.582 24.3892 163.8 24.7287 163.959 25.1463C164.118 25.5611 164.197 26.0653 164.197 26.6591V27.1108H158.994V26.1562H162.949C162.949 25.821 162.881 25.5241 162.744 25.2656C162.608 25.0043 162.416 24.7983 162.169 24.6477C161.925 24.4972 161.638 24.4219 161.308 24.4219C160.95 24.4219 160.638 24.5099 160.371 24.6861C160.107 24.8594 159.902 25.0866 159.757 25.3679C159.615 25.6463 159.544 25.9489 159.544 26.2756V27.0213C159.544 27.4588 159.621 27.831 159.774 28.1378C159.93 28.4446 160.148 28.679 160.426 28.8409C160.705 29 161.03 29.0795 161.402 29.0795C161.643 29.0795 161.864 29.0455 162.063 28.9773C162.261 28.9062 162.433 28.8011 162.578 28.6619C162.723 28.5227 162.834 28.3509 162.911 28.1463L164.117 28.3636C164.02 28.7187 163.847 29.0298 163.597 29.2969C163.349 29.5611 163.038 29.767 162.663 29.9148C162.291 30.0597 161.867 30.1321 161.389 30.1321ZM170.384 25.0526L169.229 25.2571C169.181 25.1094 169.104 24.9687 168.999 24.8352C168.897 24.7017 168.758 24.5923 168.581 24.5071C168.405 24.4219 168.185 24.3793 167.921 24.3793C167.56 24.3793 167.259 24.4602 167.018 24.6222C166.776 24.7812 166.655 24.9872 166.655 25.2401C166.655 25.4588 166.736 25.6349 166.898 25.7685C167.06 25.902 167.322 26.0114 167.682 26.0966L168.722 26.3352C169.324 26.4744 169.773 26.6889 170.069 26.9787C170.364 27.2685 170.512 27.6449 170.512 28.108C170.512 28.5 170.398 28.8494 170.171 29.1562C169.947 29.4602 169.633 29.6989 169.229 29.8722C168.829 30.0455 168.364 30.1321 167.836 30.1321C167.103 30.1321 166.505 29.9759 166.042 29.6634C165.579 29.348 165.295 28.9006 165.189 28.321L166.421 28.1335C166.498 28.4545 166.655 28.6974 166.894 28.8622C167.133 29.0241 167.444 29.1051 167.827 29.1051C168.245 29.1051 168.579 29.0185 168.829 28.8452C169.079 28.669 169.204 28.4545 169.204 28.2017C169.204 27.9972 169.127 27.8253 168.973 27.6861C168.823 27.5469 168.591 27.4418 168.279 27.3707L167.171 27.1278C166.56 26.9886 166.108 26.767 165.816 26.4631C165.526 26.1591 165.381 25.7741 165.381 25.3082C165.381 24.9219 165.489 24.5838 165.705 24.294C165.921 24.0043 166.219 23.7784 166.6 23.6165C166.981 23.4517 167.417 23.3693 167.908 23.3693C168.616 23.3693 169.172 23.5227 169.579 23.8295C169.985 24.1335 170.253 24.5412 170.384 25.0526ZM174.836 23.4545V24.4773H171.261V23.4545H174.836ZM172.22 21.8864H173.494V28.0781C173.494 28.3253 173.531 28.5114 173.605 28.6364C173.678 28.7585 173.774 28.8423 173.89 28.8878C174.009 28.9304 174.139 28.9517 174.278 28.9517C174.38 28.9517 174.47 28.9446 174.546 28.9304C174.623 28.9162 174.683 28.9048 174.725 28.8963L174.955 29.9489C174.882 29.9773 174.777 30.0057 174.64 30.0341C174.504 30.0653 174.333 30.0824 174.129 30.0852C173.794 30.0909 173.481 30.0312 173.191 29.9062C172.902 29.7812 172.667 29.5881 172.488 29.3267C172.309 29.0653 172.22 28.7372 172.22 28.3423V21.8864ZM176.114 30V23.4545H177.388V30H176.114ZM176.757 22.4446C176.535 22.4446 176.345 22.3707 176.186 22.223C176.03 22.0724 175.952 21.8935 175.952 21.6861C175.952 21.4759 176.03 21.2969 176.186 21.1491C176.345 20.9986 176.535 20.9233 176.757 20.9233C176.979 20.9233 177.168 20.9986 177.324 21.1491C177.483 21.2969 177.562 21.4759 177.562 21.6861C177.562 21.8935 177.483 22.0724 177.324 22.223C177.168 22.3707 176.979 22.4446 176.757 22.4446ZM181.727 30.1321C181.113 30.1321 180.578 29.9915 180.12 29.7102C179.663 29.429 179.308 29.0355 179.055 28.5298C178.802 28.0241 178.676 27.4332 178.676 26.7571C178.676 26.0781 178.802 25.4844 179.055 24.9759C179.308 24.4673 179.663 24.0724 180.12 23.7912C180.578 23.5099 181.113 23.3693 181.727 23.3693C182.341 23.3693 182.876 23.5099 183.334 23.7912C183.791 24.0724 184.146 24.4673 184.399 24.9759C184.652 25.4844 184.778 26.0781 184.778 26.7571C184.778 27.4332 184.652 28.0241 184.399 28.5298C184.146 29.0355 183.791 29.429 183.334 29.7102C182.876 29.9915 182.341 30.1321 181.727 30.1321ZM181.731 29.0625C182.129 29.0625 182.459 28.9574 182.72 28.7472C182.981 28.5369 183.174 28.2571 183.299 27.9077C183.427 27.5582 183.491 27.1733 183.491 26.7528C183.491 26.3352 183.427 25.9517 183.299 25.6023C183.174 25.25 182.981 24.9673 182.72 24.7543C182.459 24.5412 182.129 24.4347 181.731 24.4347C181.331 24.4347 180.998 24.5412 180.734 24.7543C180.473 24.9673 180.278 25.25 180.15 25.6023C180.025 25.9517 179.963 26.3352 179.963 26.7528C179.963 27.1733 180.025 27.5582 180.15 27.9077C180.278 28.2571 180.473 28.5369 180.734 28.7472C180.998 28.9574 181.331 29.0625 181.731 29.0625ZM187.343 26.1136V30H186.068V23.4545H187.291V24.5199H187.372C187.523 24.1733 187.759 23.8949 188.08 23.6847C188.404 23.4744 188.811 23.3693 189.303 23.3693C189.749 23.3693 190.139 23.4631 190.475 23.6506C190.81 23.8352 191.07 24.1108 191.254 24.4773C191.439 24.8437 191.531 25.2969 191.531 25.8366V30H190.257V25.9901C190.257 25.5156 190.134 25.1449 189.887 24.8778C189.639 24.608 189.3 24.473 188.868 24.473C188.573 24.473 188.31 24.5369 188.08 24.6648C187.852 24.7926 187.672 24.9801 187.539 25.2273C187.408 25.4716 187.343 25.767 187.343 26.1136Z" fill="black" fill-opacity="0.8"/>
<rect x="246" width="88" height="51" rx="3" fill="#FFC2A5"/>
<path d="M266.678 22.4062V21.2727H273.433V22.4062H270.71V30H269.397V22.4062H266.678ZM275.965 26.1136V30H274.691V21.2727H275.948V24.5199H276.029C276.182 24.1676 276.417 23.8878 276.732 23.6804C277.047 23.473 277.459 23.3693 277.968 23.3693C278.417 23.3693 278.809 23.4616 279.144 23.6463C279.482 23.831 279.743 24.1065 279.928 24.473C280.116 24.8366 280.209 25.2912 280.209 25.8366V30H278.935V25.9901C278.935 25.5099 278.812 25.1378 278.564 24.8736C278.317 24.6065 277.974 24.473 277.533 24.473C277.232 24.473 276.962 24.5369 276.724 24.6648C276.488 24.7926 276.302 24.9801 276.165 25.2273C276.032 25.4716 275.965 25.767 275.965 26.1136ZM284.535 30.1321C283.921 30.1321 283.386 29.9915 282.928 29.7102C282.471 29.429 282.116 29.0355 281.863 28.5298C281.61 28.0241 281.484 27.4332 281.484 26.7571C281.484 26.0781 281.61 25.4844 281.863 24.9759C282.116 24.4673 282.471 24.0724 282.928 23.7912C283.386 23.5099 283.921 23.3693 284.535 23.3693C285.148 23.3693 285.684 23.5099 286.141 23.7912C286.599 24.0724 286.954 24.4673 287.207 24.9759C287.459 25.4844 287.586 26.0781 287.586 26.7571C287.586 27.4332 287.459 28.0241 287.207 28.5298C286.954 29.0355 286.599 29.429 286.141 29.7102C285.684 29.9915 285.148 30.1321 284.535 30.1321ZM284.539 29.0625C284.937 29.0625 285.266 28.9574 285.528 28.7472C285.789 28.5369 285.982 28.2571 286.107 27.9077C286.235 27.5582 286.299 27.1733 286.299 26.7528C286.299 26.3352 286.235 25.9517 286.107 25.6023C285.982 25.25 285.789 24.9673 285.528 24.7543C285.266 24.5412 284.937 24.4347 284.539 24.4347C284.138 24.4347 283.806 24.5412 283.542 24.7543C283.28 24.9673 283.086 25.25 282.958 25.6023C282.833 25.9517 282.77 26.3352 282.77 26.7528C282.77 27.1733 282.833 27.5582 282.958 27.9077C283.086 28.2571 283.28 28.5369 283.542 28.7472C283.806 28.9574 284.138 29.0625 284.539 29.0625ZM293.022 27.2855V23.4545H294.301V30H293.048V28.8665H292.98C292.829 29.2159 292.588 29.5071 292.255 29.7401C291.926 29.9702 291.515 30.0852 291.024 30.0852C290.603 30.0852 290.231 29.9929 289.907 29.8082C289.586 29.6207 289.333 29.3438 289.149 28.9773C288.967 28.6108 288.876 28.1577 288.876 27.6179V23.4545H290.15V27.4645C290.15 27.9105 290.274 28.2656 290.521 28.5298C290.768 28.794 291.089 28.9261 291.484 28.9261C291.723 28.9261 291.96 28.8665 292.196 28.7472C292.434 28.6278 292.632 28.4474 292.788 28.206C292.947 27.9645 293.025 27.6577 293.022 27.2855ZM298.625 32.5909C298.105 32.5909 297.658 32.5227 297.283 32.3864C296.911 32.25 296.607 32.0696 296.371 31.8452C296.135 31.6207 295.959 31.375 295.842 31.108L296.938 30.6562C297.014 30.7812 297.117 30.9134 297.244 31.0526C297.375 31.1946 297.551 31.3153 297.773 31.4148C297.997 31.5142 298.286 31.5639 298.638 31.5639C299.121 31.5639 299.52 31.446 299.835 31.2102C300.151 30.9773 300.308 30.6051 300.308 30.0938V28.8068H300.227C300.151 28.946 300.04 29.1009 299.895 29.2713C299.753 29.4418 299.557 29.5895 299.307 29.7145C299.057 29.8395 298.732 29.902 298.331 29.902C297.814 29.902 297.348 29.7812 296.933 29.5398C296.521 29.2955 296.195 28.9361 295.953 28.4616C295.715 27.9844 295.595 27.3977 295.595 26.7017C295.595 26.0057 295.713 25.4091 295.949 24.9119C296.188 24.4148 296.514 24.0341 296.929 23.7699C297.344 23.5028 297.814 23.3693 298.34 23.3693C298.746 23.3693 299.074 23.4375 299.324 23.5739C299.574 23.7074 299.769 23.8636 299.908 24.0426C300.05 24.2216 300.159 24.3793 300.236 24.5156H300.33V23.4545H301.578V30.1449C301.578 30.7074 301.448 31.169 301.186 31.5298C300.925 31.8906 300.571 32.1577 300.125 32.331C299.682 32.5043 299.182 32.5909 298.625 32.5909ZM298.612 28.8452C298.979 28.8452 299.288 28.7599 299.541 28.5895C299.797 28.4162 299.99 28.169 300.121 27.848C300.254 27.5241 300.321 27.1364 300.321 26.6847C300.321 26.2443 300.256 25.8565 300.125 25.5213C299.994 25.1861 299.803 24.9247 299.55 24.7372C299.297 24.5469 298.984 24.4517 298.612 24.4517C298.229 24.4517 297.909 24.5511 297.654 24.75C297.398 24.946 297.205 25.2131 297.074 25.5511C296.946 25.8892 296.882 26.267 296.882 26.6847C296.882 27.1136 296.948 27.4901 297.078 27.8139C297.209 28.1378 297.402 28.3906 297.658 28.5724C297.916 28.7543 298.234 28.8452 298.612 28.8452ZM304.429 26.1136V30H303.155V21.2727H304.412V24.5199H304.493C304.647 24.1676 304.881 23.8878 305.196 23.6804C305.512 23.473 305.924 23.3693 306.432 23.3693C306.881 23.3693 307.273 23.4616 307.608 23.6463C307.946 23.831 308.208 24.1065 308.392 24.473C308.58 24.8366 308.674 25.2912 308.674 25.8366V30H307.399V25.9901C307.399 25.5099 307.276 25.1378 307.029 24.8736C306.781 24.6065 306.438 24.473 305.997 24.473C305.696 24.473 305.426 24.5369 305.188 24.6648C304.952 24.7926 304.766 24.9801 304.629 25.2273C304.496 25.4716 304.429 25.767 304.429 26.1136ZM313.297 23.4545V24.4773H309.722V23.4545H313.297ZM310.681 21.8864H311.955V28.0781C311.955 28.3253 311.992 28.5114 312.066 28.6364C312.14 28.7585 312.235 28.8423 312.351 28.8878C312.47 28.9304 312.6 28.9517 312.739 28.9517C312.841 28.9517 312.931 28.9446 313.007 28.9304C313.084 28.9162 313.144 28.9048 313.186 28.8963L313.417 29.9489C313.343 29.9773 313.238 30.0057 313.101 30.0341C312.965 30.0653 312.794 30.0824 312.59 30.0852C312.255 30.0909 311.942 30.0312 311.652 29.9062C311.363 29.7812 311.128 29.5881 310.949 29.3267C310.77 29.0653 310.681 28.7372 310.681 28.3423V21.8864Z" fill="black" fill-opacity="0.8"/>
</svg>
