<svg width="961" height="73" viewBox="0 0 961 73" fill="none" xmlns="http://www.w3.org/2000/svg">
<rect x="167.61" width="122.611" height="73" rx="6" fill="#FFE352"/>
<path d="M193.49 43V31.3636H200.706V32.875H195.245V36.4205H200.189V37.9261H195.245V43H193.49ZM205.673 43.1761C204.813 43.1761 204.073 42.9924 203.451 42.625C202.834 42.2538 202.357 41.733 202.02 41.0625C201.686 40.3883 201.52 39.5985 201.52 38.6932C201.52 37.7992 201.686 37.0114 202.02 36.3295C202.357 35.6477 202.826 35.1155 203.429 34.733C204.035 34.3504 204.743 34.1591 205.554 34.1591C206.046 34.1591 206.523 34.2405 206.986 34.4034C207.448 34.5663 207.862 34.822 208.23 35.1705C208.597 35.5189 208.887 35.9716 209.099 36.5284C209.311 37.0814 209.417 37.7538 209.417 38.5455V39.1477H202.48V37.875H207.753C207.753 37.428 207.662 37.0322 207.48 36.6875C207.298 36.339 207.042 36.0644 206.713 35.8636C206.387 35.6629 206.005 35.5625 205.565 35.5625C205.088 35.5625 204.671 35.6799 204.315 35.9148C203.963 36.1458 203.69 36.4489 203.497 36.8239C203.308 37.1951 203.213 37.5985 203.213 38.0341V39.0284C203.213 39.6117 203.315 40.108 203.52 40.517C203.728 40.9261 204.018 41.2386 204.389 41.4545C204.76 41.6667 205.194 41.7727 205.69 41.7727C206.012 41.7727 206.306 41.7273 206.571 41.6364C206.836 41.5417 207.065 41.4015 207.258 41.2159C207.451 41.0303 207.599 40.8011 207.701 40.5284L209.309 40.8182C209.181 41.2917 208.95 41.7064 208.616 42.0625C208.287 42.4148 207.872 42.6894 207.372 42.8864C206.876 43.0795 206.309 43.1761 205.673 43.1761ZM214.888 43.1761C214.028 43.1761 213.287 42.9924 212.666 42.625C212.049 42.2538 211.571 41.733 211.234 41.0625C210.901 40.3883 210.734 39.5985 210.734 38.6932C210.734 37.7992 210.901 37.0114 211.234 36.3295C211.571 35.6477 212.041 35.1155 212.643 34.733C213.249 34.3504 213.958 34.1591 214.768 34.1591C215.261 34.1591 215.738 34.2405 216.2 34.4034C216.662 34.5663 217.077 34.822 217.445 35.1705C217.812 35.5189 218.102 35.9716 218.314 36.5284C218.526 37.0814 218.632 37.7538 218.632 38.5455V39.1477H211.695V37.875H216.967C216.967 37.428 216.876 37.0322 216.695 36.6875C216.513 36.339 216.257 36.0644 215.927 35.8636C215.602 35.6629 215.219 35.5625 214.78 35.5625C214.302 35.5625 213.886 35.6799 213.53 35.9148C213.177 36.1458 212.905 36.4489 212.712 36.8239C212.522 37.1951 212.427 37.5985 212.427 38.0341V39.0284C212.427 39.6117 212.53 40.108 212.734 40.517C212.943 40.9261 213.232 41.2386 213.604 41.4545C213.975 41.6667 214.409 41.7727 214.905 41.7727C215.227 41.7727 215.52 41.7273 215.785 41.6364C216.051 41.5417 216.28 41.4015 216.473 41.2159C216.666 41.0303 216.814 40.8011 216.916 40.5284L218.524 40.8182C218.395 41.2917 218.164 41.7064 217.831 42.0625C217.501 42.4148 217.087 42.6894 216.587 42.8864C216.09 43.0795 215.524 43.1761 214.888 43.1761ZM223.608 43.1705C222.903 43.1705 222.275 42.9905 221.722 42.6307C221.172 42.267 220.741 41.75 220.426 41.0795C220.116 40.4053 219.96 39.5966 219.96 38.6534C219.96 37.7102 220.117 36.9034 220.432 36.233C220.75 35.5625 221.186 35.0492 221.739 34.6932C222.292 34.3371 222.919 34.1591 223.619 34.1591C224.161 34.1591 224.597 34.25 224.926 34.4318C225.26 34.6098 225.517 34.8182 225.699 35.0568C225.885 35.2955 226.028 35.5057 226.131 35.6875H226.233V31.3636H227.932V43H226.273V41.642H226.131C226.028 41.8277 225.881 42.0398 225.688 42.2784C225.498 42.517 225.237 42.7254 224.903 42.9034C224.57 43.0814 224.138 43.1705 223.608 43.1705ZM223.983 41.7216C224.472 41.7216 224.885 41.5928 225.222 41.3352C225.563 41.0739 225.82 40.7121 225.994 40.25C226.172 39.7879 226.261 39.25 226.261 38.6364C226.261 38.0303 226.174 37.5 226 37.0455C225.826 36.5909 225.57 36.2367 225.233 35.983C224.896 35.7292 224.479 35.6023 223.983 35.6023C223.472 35.6023 223.046 35.7348 222.705 36C222.364 36.2652 222.106 36.6269 221.932 37.0852C221.761 37.5436 221.676 38.0606 221.676 38.6364C221.676 39.2197 221.763 39.7443 221.938 40.2102C222.112 40.6761 222.369 41.0455 222.71 41.3182C223.055 41.5871 223.479 41.7216 223.983 41.7216ZM230.317 43V31.3636H232.016V35.6875H232.118C232.217 35.5057 232.359 35.2955 232.544 35.0568C232.73 34.8182 232.987 34.6098 233.317 34.4318C233.647 34.25 234.082 34.1591 234.624 34.1591C235.328 34.1591 235.957 34.3371 236.51 34.6932C237.063 35.0492 237.497 35.5625 237.811 36.233C238.129 36.9034 238.289 37.7102 238.289 38.6534C238.289 39.5966 238.131 40.4053 237.817 41.0795C237.503 41.75 237.071 42.267 236.522 42.6307C235.972 42.9905 235.345 43.1705 234.641 43.1705C234.111 43.1705 233.677 43.0814 233.34 42.9034C233.006 42.7254 232.745 42.517 232.556 42.2784C232.366 42.0398 232.22 41.8277 232.118 41.642H231.976V43H230.317ZM231.982 38.6364C231.982 39.25 232.071 39.7879 232.249 40.25C232.427 40.7121 232.684 41.0739 233.022 41.3352C233.359 41.5928 233.772 41.7216 234.26 41.7216C234.768 41.7216 235.192 41.5871 235.533 41.3182C235.874 41.0455 236.131 40.6761 236.306 40.2102C236.484 39.7443 236.573 39.2197 236.573 38.6364C236.573 38.0606 236.486 37.5436 236.311 37.0852C236.141 36.6269 235.883 36.2652 235.539 36C235.198 35.7348 234.772 35.6023 234.26 35.6023C233.768 35.6023 233.351 35.7292 233.01 35.983C232.673 36.2367 232.417 36.5909 232.243 37.0455C232.069 37.5 231.982 38.0303 231.982 38.6364ZM242.56 43.1932C242.007 43.1932 241.507 43.0909 241.06 42.8864C240.613 42.678 240.259 42.3769 239.997 41.983C239.74 41.589 239.611 41.1061 239.611 40.5341C239.611 40.0417 239.706 39.6364 239.895 39.3182C240.085 39 240.34 38.7481 240.662 38.5625C240.984 38.3769 241.344 38.2367 241.742 38.142C242.14 38.0473 242.545 37.9754 242.958 37.9261C243.48 37.8655 243.905 37.8163 244.23 37.7784C244.556 37.7367 244.793 37.6705 244.941 37.5795C245.088 37.4886 245.162 37.3409 245.162 37.1364V37.0966C245.162 36.6004 245.022 36.2159 244.742 35.9432C244.465 35.6705 244.052 35.5341 243.503 35.5341C242.931 35.5341 242.48 35.661 242.151 35.9148C241.825 36.1648 241.6 36.4432 241.475 36.75L239.878 36.3864C240.068 35.8561 240.344 35.428 240.708 35.1023C241.075 34.7727 241.497 34.5341 241.975 34.3864C242.452 34.2348 242.954 34.1591 243.48 34.1591C243.829 34.1591 244.198 34.2008 244.588 34.2841C244.982 34.3636 245.35 34.5114 245.691 34.7273C246.035 34.9432 246.318 35.2519 246.537 35.6534C246.757 36.0511 246.867 36.5682 246.867 37.2045V43H245.208V41.8068H245.14C245.03 42.0265 244.865 42.2424 244.645 42.4545C244.426 42.6667 244.143 42.8428 243.799 42.983C243.454 43.1231 243.041 43.1932 242.56 43.1932ZM242.929 41.8295C243.399 41.8295 243.801 41.7367 244.134 41.5511C244.471 41.3655 244.727 41.1231 244.901 40.8239C245.079 40.5208 245.168 40.197 245.168 39.8523V38.7273C245.107 38.7879 244.99 38.8447 244.816 38.8977C244.645 38.947 244.45 38.9905 244.23 39.0284C244.011 39.0625 243.797 39.0947 243.588 39.125C243.38 39.1515 243.206 39.1742 243.066 39.1932C242.736 39.2348 242.435 39.3049 242.162 39.4034C241.893 39.5019 241.677 39.6439 241.515 39.8295C241.355 40.0114 241.276 40.2538 241.276 40.5568C241.276 40.9773 241.431 41.2955 241.742 41.5114C242.052 41.7235 242.448 41.8295 242.929 41.8295ZM252.63 43.1761C251.785 43.1761 251.058 42.9848 250.448 42.6023C249.842 42.2159 249.376 41.6837 249.05 41.0057C248.724 40.3277 248.562 39.5511 248.562 38.6761C248.562 37.7898 248.728 37.0076 249.062 36.3295C249.395 35.6477 249.865 35.1155 250.471 34.733C251.077 34.3504 251.791 34.1591 252.613 34.1591C253.276 34.1591 253.866 34.2822 254.385 34.5284C254.904 34.7708 255.323 35.1117 255.641 35.5511C255.963 35.9905 256.154 36.5038 256.215 37.0909H254.562C254.471 36.6818 254.262 36.3295 253.937 36.0341C253.615 35.7386 253.183 35.5909 252.641 35.5909C252.168 35.5909 251.753 35.7159 251.397 35.9659C251.045 36.2121 250.77 36.5644 250.573 37.0227C250.376 37.4773 250.277 38.0152 250.277 38.6364C250.277 39.2727 250.374 39.822 250.567 40.2841C250.76 40.7462 251.033 41.1042 251.385 41.358C251.741 41.6117 252.16 41.7386 252.641 41.7386C252.963 41.7386 253.255 41.6799 253.516 41.5625C253.781 41.4413 254.003 41.2689 254.181 41.0455C254.363 40.822 254.49 40.553 254.562 40.2386H256.215C256.154 40.803 255.971 41.3068 255.664 41.75C255.357 42.1932 254.946 42.5417 254.431 42.7955C253.92 43.0492 253.319 43.1761 252.63 43.1761ZM259.418 40.0398L259.407 37.9659H259.702L263.18 34.2727H265.214L261.248 38.4773H260.981L259.418 40.0398ZM257.856 43V31.3636H259.555V43H257.856ZM263.367 43L260.242 38.8523L261.413 37.6648L265.452 43H263.367Z" fill="black" fill-opacity="0.8"/>
<rect x="335.221" width="122.611" height="73" rx="6" fill="#FFE352"/>
<path d="M356.859 43L353.632 31.3636H355.478L357.746 40.375H357.853L360.211 31.3636H362.041L364.399 40.3807H364.507L366.768 31.3636H368.621L365.388 43H363.621L361.172 34.2841H361.081L358.632 43H356.859ZM369.909 43V34.2727H371.608V43H369.909ZM370.767 32.9261C370.472 32.9261 370.218 32.8277 370.006 32.6307C369.797 32.4299 369.693 32.1913 369.693 31.9148C369.693 31.6345 369.797 31.3958 370.006 31.1989C370.218 30.9981 370.472 30.8977 370.767 30.8977C371.062 30.8977 371.314 30.9981 371.523 31.1989C371.735 31.3958 371.841 31.6345 371.841 31.9148C371.841 32.1913 371.735 32.4299 371.523 32.6307C371.314 32.8277 371.062 32.9261 370.767 32.9261ZM373.717 43V34.2727H375.359V35.6591H375.45C375.609 35.1894 375.89 34.8201 376.291 34.5511C376.697 34.2784 377.155 34.142 377.666 34.142C377.772 34.142 377.897 34.1458 378.041 34.1534C378.189 34.161 378.305 34.1705 378.388 34.1818V35.8068C378.32 35.7879 378.198 35.767 378.024 35.7443C377.85 35.7178 377.676 35.7045 377.501 35.7045C377.1 35.7045 376.742 35.7898 376.428 35.9602C376.117 36.1269 375.871 36.3598 375.689 36.6591C375.507 36.9545 375.416 37.2917 375.416 37.6705V43H373.717ZM383.131 43.1761C382.271 43.1761 381.53 42.9924 380.909 42.625C380.292 42.2538 379.815 41.733 379.477 41.0625C379.144 40.3883 378.977 39.5985 378.977 38.6932C378.977 37.7992 379.144 37.0114 379.477 36.3295C379.815 35.6477 380.284 35.1155 380.887 34.733C381.493 34.3504 382.201 34.1591 383.012 34.1591C383.504 34.1591 383.981 34.2405 384.443 34.4034C384.905 34.5663 385.32 34.822 385.688 35.1705C386.055 35.5189 386.345 35.9716 386.557 36.5284C386.769 37.0814 386.875 37.7538 386.875 38.5455V39.1477H379.938V37.875H385.21C385.21 37.428 385.12 37.0322 384.938 36.6875C384.756 36.339 384.5 36.0644 384.171 35.8636C383.845 35.6629 383.462 35.5625 383.023 35.5625C382.546 35.5625 382.129 35.6799 381.773 35.9148C381.421 36.1458 381.148 36.4489 380.955 36.8239C380.765 37.1951 380.671 37.5985 380.671 38.0341V39.0284C380.671 39.6117 380.773 40.108 380.977 40.517C381.186 40.9261 381.476 41.2386 381.847 41.4545C382.218 41.6667 382.652 41.7727 383.148 41.7727C383.47 41.7727 383.763 41.7273 384.029 41.6364C384.294 41.5417 384.523 41.4015 384.716 41.2159C384.909 41.0303 385.057 40.8011 385.159 40.5284L386.767 40.8182C386.638 41.2917 386.407 41.7064 386.074 42.0625C385.745 42.4148 385.33 42.6894 384.83 42.8864C384.334 43.0795 383.767 43.1761 383.131 43.1761ZM392.738 34.2727V35.6364H387.806V34.2727H392.738ZM389.158 43V33.2614C389.158 32.7159 389.277 32.2633 389.516 31.9034C389.755 31.5398 390.071 31.2689 390.465 31.0909C390.859 30.9091 391.287 30.8182 391.749 30.8182C392.09 30.8182 392.381 30.8466 392.624 30.9034C392.866 30.9564 393.046 31.0057 393.164 31.0511L392.766 32.4261C392.686 32.4034 392.584 32.3769 392.459 32.3466C392.334 32.3125 392.183 32.2955 392.005 32.2955C391.592 32.2955 391.296 32.3977 391.118 32.6023C390.944 32.8068 390.857 33.1023 390.857 33.4886V43H389.158ZM394.314 43V34.2727H395.956V35.6591H396.047C396.206 35.1894 396.487 34.8201 396.888 34.5511C397.294 34.2784 397.752 34.142 398.263 34.142C398.369 34.142 398.494 34.1458 398.638 34.1534C398.786 34.161 398.902 34.1705 398.985 34.1818V35.8068C398.917 35.7879 398.795 35.767 398.621 35.7443C398.447 35.7178 398.273 35.7045 398.098 35.7045C397.697 35.7045 397.339 35.7898 397.025 35.9602C396.714 36.1269 396.468 36.3598 396.286 36.6591C396.104 36.9545 396.013 37.2917 396.013 37.6705V43H394.314ZM402.741 43.1932C402.188 43.1932 401.688 43.0909 401.241 42.8864C400.794 42.678 400.44 42.3769 400.178 41.983C399.921 41.589 399.792 41.1061 399.792 40.5341C399.792 40.0417 399.886 39.6364 400.076 39.3182C400.265 39 400.521 38.7481 400.843 38.5625C401.165 38.3769 401.525 38.2367 401.922 38.142C402.32 38.0473 402.726 37.9754 403.138 37.9261C403.661 37.8655 404.085 37.8163 404.411 37.7784C404.737 37.7367 404.974 37.6705 405.121 37.5795C405.269 37.4886 405.343 37.3409 405.343 37.1364V37.0966C405.343 36.6004 405.203 36.2159 404.922 35.9432C404.646 35.6705 404.233 35.5341 403.684 35.5341C403.112 35.5341 402.661 35.661 402.332 35.9148C402.006 36.1648 401.78 36.4432 401.655 36.75L400.059 36.3864C400.248 35.8561 400.525 35.428 400.888 35.1023C401.256 34.7727 401.678 34.5341 402.155 34.3864C402.633 34.2348 403.135 34.1591 403.661 34.1591C404.01 34.1591 404.379 34.2008 404.769 34.2841C405.163 34.3636 405.53 34.5114 405.871 34.7273C406.216 34.9432 406.498 35.2519 406.718 35.6534C406.938 36.0511 407.047 36.5682 407.047 37.2045V43H405.388V41.8068H405.32C405.21 42.0265 405.046 42.2424 404.826 42.4545C404.606 42.6667 404.324 42.8428 403.979 42.983C403.635 43.1231 403.222 43.1932 402.741 43.1932ZM403.11 41.8295C403.58 41.8295 403.981 41.7367 404.315 41.5511C404.652 41.3655 404.907 41.1231 405.082 40.8239C405.26 40.5208 405.349 40.197 405.349 39.8523V38.7273C405.288 38.7879 405.171 38.8447 404.996 38.8977C404.826 38.947 404.631 38.9905 404.411 39.0284C404.191 39.0625 403.977 39.0947 403.769 39.125C403.561 39.1515 403.386 39.1742 403.246 39.1932C402.917 39.2348 402.616 39.3049 402.343 39.4034C402.074 39.5019 401.858 39.6439 401.695 39.8295C401.536 40.0114 401.457 40.2538 401.457 40.5568C401.457 40.9773 401.612 41.2955 401.922 41.5114C402.233 41.7235 402.629 41.8295 403.11 41.8295ZM409.134 43V34.2727H410.765V35.6932H410.873C411.055 35.2121 411.352 34.8371 411.765 34.5682C412.178 34.2955 412.672 34.1591 413.248 34.1591C413.831 34.1591 414.32 34.2955 414.714 34.5682C415.112 34.8409 415.405 35.2159 415.594 35.6932H415.685C415.894 35.2273 416.225 34.8561 416.68 34.5795C417.134 34.2992 417.676 34.1591 418.305 34.1591C419.096 34.1591 419.742 34.4072 420.242 34.9034C420.746 35.3996 420.998 36.1477 420.998 37.1477V43H419.299V37.3068C419.299 36.7159 419.138 36.2879 418.816 36.0227C418.494 35.7576 418.11 35.625 417.663 35.625C417.11 35.625 416.68 35.7955 416.373 36.1364C416.066 36.4735 415.913 36.9072 415.913 37.4375V43H414.219V37.1989C414.219 36.7254 414.072 36.3447 413.776 36.0568C413.481 35.7689 413.096 35.625 412.623 35.625C412.301 35.625 412.004 35.7102 411.731 35.8807C411.462 36.0473 411.244 36.2803 411.077 36.5795C410.915 36.8788 410.833 37.2254 410.833 37.6193V43H409.134ZM426.86 43.1761C426 43.1761 425.26 42.9924 424.639 42.625C424.021 42.2538 423.544 41.733 423.207 41.0625C422.874 40.3883 422.707 39.5985 422.707 38.6932C422.707 37.7992 422.874 37.0114 423.207 36.3295C423.544 35.6477 424.014 35.1155 424.616 34.733C425.222 34.3504 425.93 34.1591 426.741 34.1591C427.233 34.1591 427.711 34.2405 428.173 34.4034C428.635 34.5663 429.05 34.822 429.417 35.1705C429.784 35.5189 430.074 35.9716 430.286 36.5284C430.499 37.0814 430.605 37.7538 430.605 38.5455V39.1477H423.667V37.875H428.94C428.94 37.428 428.849 37.0322 428.667 36.6875C428.485 36.339 428.23 36.0644 427.9 35.8636C427.574 35.6629 427.192 35.5625 426.752 35.5625C426.275 35.5625 425.858 35.6799 425.502 35.9148C425.15 36.1458 424.877 36.4489 424.684 36.8239C424.495 37.1951 424.4 37.5985 424.4 38.0341V39.0284C424.4 39.6117 424.502 40.108 424.707 40.517C424.915 40.9261 425.205 41.2386 425.576 41.4545C425.947 41.6667 426.381 41.7727 426.877 41.7727C427.199 41.7727 427.493 41.7273 427.758 41.6364C428.023 41.5417 428.252 41.4015 428.445 41.2159C428.639 41.0303 428.786 40.8011 428.889 40.5284L430.497 40.8182C430.368 41.2917 430.137 41.7064 429.803 42.0625C429.474 42.4148 429.059 42.6894 428.559 42.8864C428.063 43.0795 427.497 43.1761 426.86 43.1761ZM438.853 36.4034L437.314 36.6761C437.249 36.4792 437.147 36.2917 437.007 36.1136C436.87 35.9356 436.685 35.7898 436.45 35.6761C436.215 35.5625 435.921 35.5057 435.569 35.5057C435.088 35.5057 434.687 35.6136 434.365 35.8295C434.043 36.0417 433.882 36.3163 433.882 36.6534C433.882 36.9451 433.99 37.1799 434.206 37.358C434.421 37.536 434.77 37.6818 435.251 37.7955L436.637 38.1136C437.44 38.2992 438.039 38.5852 438.433 38.9716C438.827 39.358 439.024 39.8598 439.024 40.4773C439.024 41 438.872 41.4659 438.569 41.875C438.27 42.2803 437.851 42.5985 437.314 42.8295C436.779 43.0606 436.16 43.1761 435.456 43.1761C434.478 43.1761 433.681 42.9678 433.064 42.5511C432.446 42.1307 432.067 41.5341 431.927 40.7614L433.569 40.5114C433.671 40.9394 433.882 41.2633 434.2 41.483C434.518 41.6989 434.933 41.8068 435.444 41.8068C436.001 41.8068 436.446 41.6913 436.779 41.4602C437.113 41.2254 437.279 40.9394 437.279 40.6023C437.279 40.3295 437.177 40.1004 436.973 39.9148C436.772 39.7292 436.463 39.589 436.046 39.4943L434.569 39.1705C433.755 38.9848 433.153 38.6894 432.762 38.2841C432.376 37.8788 432.183 37.3655 432.183 36.7443C432.183 36.2292 432.327 35.7784 432.615 35.392C432.903 35.0057 433.3 34.7045 433.808 34.4886C434.315 34.2689 434.897 34.1591 435.552 34.1591C436.495 34.1591 437.238 34.3636 437.779 34.7727C438.321 35.178 438.679 35.7216 438.853 36.4034Z" fill="black" fill-opacity="0.8"/>
<rect x="670.441" width="122.611" height="73" rx="6" fill="#FFE352"/>
<path d="M695.987 43V31.3636H700.135C701.04 31.3636 701.79 31.5284 702.385 31.858C702.979 32.1875 703.424 32.6383 703.72 33.2102C704.015 33.7784 704.163 34.4186 704.163 35.1307C704.163 35.8466 704.013 36.4905 703.714 37.0625C703.419 37.6307 702.972 38.0814 702.373 38.4148C701.779 38.7443 701.03 38.9091 700.129 38.9091H697.277V37.4205H699.97C700.542 37.4205 701.006 37.322 701.362 37.125C701.718 36.9242 701.979 36.6515 702.146 36.3068C702.313 35.9621 702.396 35.5701 702.396 35.1307C702.396 34.6913 702.313 34.3011 702.146 33.9602C701.979 33.6193 701.716 33.3523 701.356 33.1591C701 32.9659 700.53 32.8693 699.947 32.8693H697.743V43H695.987ZM705.909 43V34.2727H707.551V35.6591H707.642C707.801 35.1894 708.081 34.8201 708.483 34.5511C708.888 34.2784 709.346 34.142 709.858 34.142C709.964 34.142 710.089 34.1458 710.233 34.1534C710.38 34.161 710.496 34.1705 710.579 34.1818V35.8068C710.511 35.7879 710.39 35.767 710.216 35.7443C710.041 35.7178 709.867 35.7045 709.693 35.7045C709.291 35.7045 708.934 35.7898 708.619 35.9602C708.309 36.1269 708.062 36.3598 707.88 36.6591C707.699 36.9545 707.608 37.2917 707.608 37.6705V43H705.909ZM715.237 43.1761C714.419 43.1761 713.705 42.9886 713.095 42.6136C712.485 42.2386 712.012 41.714 711.675 41.0398C711.338 40.3655 711.169 39.5777 711.169 38.6761C711.169 37.7708 711.338 36.9792 711.675 36.3011C712.012 35.6231 712.485 35.0966 713.095 34.7216C713.705 34.3466 714.419 34.1591 715.237 34.1591C716.055 34.1591 716.769 34.3466 717.379 34.7216C717.989 35.0966 718.463 35.6231 718.8 36.3011C719.137 36.9792 719.305 37.7708 719.305 38.6761C719.305 39.5777 719.137 40.3655 718.8 41.0398C718.463 41.714 717.989 42.2386 717.379 42.6136C716.769 42.9886 716.055 43.1761 715.237 43.1761ZM715.243 41.75C715.773 41.75 716.213 41.6098 716.561 41.3295C716.91 41.0492 717.167 40.6761 717.334 40.2102C717.504 39.7443 717.589 39.2311 717.589 38.6705C717.589 38.1136 717.504 37.6023 717.334 37.1364C717.167 36.6667 716.91 36.2898 716.561 36.0057C716.213 35.7216 715.773 35.5795 715.243 35.5795C714.709 35.5795 714.266 35.7216 713.913 36.0057C713.565 36.2898 713.305 36.6667 713.135 37.1364C712.968 37.6023 712.885 38.1136 712.885 38.6705C712.885 39.2311 712.968 39.7443 713.135 40.2102C713.305 40.6761 713.565 41.0492 713.913 41.3295C714.266 41.6098 714.709 41.75 715.243 41.75ZM725.1 34.2727V35.6364H720.332V34.2727H725.1ZM721.611 32.1818H723.31V40.4375C723.31 40.767 723.359 41.0152 723.457 41.1818C723.556 41.3447 723.683 41.4564 723.838 41.517C723.997 41.5739 724.17 41.6023 724.355 41.6023C724.492 41.6023 724.611 41.5928 724.713 41.5739C724.815 41.5549 724.895 41.5398 724.952 41.5284L725.259 42.9318C725.16 42.9697 725.02 43.0076 724.838 43.0455C724.656 43.0871 724.429 43.1098 724.156 43.1136C723.709 43.1212 723.293 43.0417 722.906 42.875C722.52 42.7083 722.207 42.4508 721.969 42.1023C721.73 41.7538 721.611 41.3163 721.611 40.7898V32.1818ZM730.385 43.1761C729.567 43.1761 728.853 42.9886 728.243 42.6136C727.633 42.2386 727.16 41.714 726.823 41.0398C726.486 40.3655 726.317 39.5777 726.317 38.6761C726.317 37.7708 726.486 36.9792 726.823 36.3011C727.16 35.6231 727.633 35.0966 728.243 34.7216C728.853 34.3466 729.567 34.1591 730.385 34.1591C731.203 34.1591 731.917 34.3466 732.527 34.7216C733.137 35.0966 733.611 35.6231 733.948 36.3011C734.285 36.9792 734.453 37.7708 734.453 38.6761C734.453 39.5777 734.285 40.3655 733.948 41.0398C733.611 41.714 733.137 42.2386 732.527 42.6136C731.917 42.9886 731.203 43.1761 730.385 43.1761ZM730.391 41.75C730.921 41.75 731.361 41.6098 731.709 41.3295C732.058 41.0492 732.315 40.6761 732.482 40.2102C732.652 39.7443 732.737 39.2311 732.737 38.6705C732.737 38.1136 732.652 37.6023 732.482 37.1364C732.315 36.6667 732.058 36.2898 731.709 36.0057C731.361 35.7216 730.921 35.5795 730.391 35.5795C729.857 35.5795 729.414 35.7216 729.061 36.0057C728.713 36.2898 728.453 36.6667 728.283 37.1364C728.116 37.6023 728.033 38.1136 728.033 38.6705C728.033 39.2311 728.116 39.7443 728.283 40.2102C728.453 40.6761 728.713 41.0492 729.061 41.3295C729.414 41.6098 729.857 41.75 730.391 41.75ZM740.248 34.2727V35.6364H735.48V34.2727H740.248ZM736.759 32.1818H738.458V40.4375C738.458 40.767 738.507 41.0152 738.605 41.1818C738.704 41.3447 738.831 41.4564 738.986 41.517C739.145 41.5739 739.318 41.6023 739.503 41.6023C739.64 41.6023 739.759 41.5928 739.861 41.5739C739.963 41.5549 740.043 41.5398 740.1 41.5284L740.407 42.9318C740.308 42.9697 740.168 43.0076 739.986 43.0455C739.804 43.0871 739.577 43.1098 739.304 43.1136C738.857 43.1212 738.441 43.0417 738.054 42.875C737.668 42.7083 737.355 42.4508 737.117 42.1023C736.878 41.7538 736.759 41.3163 736.759 40.7898V32.1818ZM743.025 46.2727C742.771 46.2727 742.54 46.2519 742.331 46.2102C742.123 46.1723 741.968 46.1307 741.866 46.0852L742.275 44.6932C742.585 44.7765 742.862 44.8125 743.104 44.8011C743.347 44.7898 743.561 44.6989 743.746 44.5284C743.936 44.358 744.102 44.0795 744.246 43.6932L744.456 43.1136L741.263 34.2727H743.081L745.292 41.0455H745.383L747.593 34.2727H749.417L745.82 44.1648C745.653 44.6193 745.441 45.0038 745.184 45.3182C744.926 45.6364 744.619 45.875 744.263 46.0341C743.907 46.1932 743.494 46.2727 743.025 46.2727ZM750.837 46.2727V34.2727H752.496V35.6875H752.638C752.737 35.5057 752.879 35.2955 753.065 35.0568C753.25 34.8182 753.508 34.6098 753.837 34.4318C754.167 34.25 754.602 34.1591 755.144 34.1591C755.849 34.1591 756.477 34.3371 757.03 34.6932C757.583 35.0492 758.017 35.5625 758.332 36.233C758.65 36.9034 758.809 37.7102 758.809 38.6534C758.809 39.5966 758.652 40.4053 758.337 41.0795C758.023 41.75 757.591 42.267 757.042 42.6307C756.493 42.9905 755.866 43.1705 755.161 43.1705C754.631 43.1705 754.197 43.0814 753.86 42.9034C753.527 42.7254 753.265 42.517 753.076 42.2784C752.887 42.0398 752.741 41.8277 752.638 41.642H752.536V46.2727H750.837ZM752.502 38.6364C752.502 39.25 752.591 39.7879 752.769 40.25C752.947 40.7121 753.205 41.0739 753.542 41.3352C753.879 41.5928 754.292 41.7216 754.78 41.7216C755.288 41.7216 755.712 41.5871 756.053 41.3182C756.394 41.0455 756.652 40.6761 756.826 40.2102C757.004 39.7443 757.093 39.2197 757.093 38.6364C757.093 38.0606 757.006 37.5436 756.832 37.0852C756.661 36.6269 756.404 36.2652 756.059 36C755.718 35.7348 755.292 35.6023 754.78 35.6023C754.288 35.6023 753.871 35.7292 753.53 35.983C753.193 36.2367 752.938 36.5909 752.763 37.0455C752.589 37.5 752.502 38.0303 752.502 38.6364ZM764.298 43.1761C763.438 43.1761 762.697 42.9924 762.076 42.625C761.459 42.2538 760.981 41.733 760.644 41.0625C760.311 40.3883 760.144 39.5985 760.144 38.6932C760.144 37.7992 760.311 37.0114 760.644 36.3295C760.981 35.6477 761.451 35.1155 762.053 34.733C762.659 34.3504 763.368 34.1591 764.178 34.1591C764.671 34.1591 765.148 34.2405 765.61 34.4034C766.072 34.5663 766.487 34.822 766.854 35.1705C767.222 35.5189 767.512 35.9716 767.724 36.5284C767.936 37.0814 768.042 37.7538 768.042 38.5455V39.1477H761.104V37.875H766.377C766.377 37.428 766.286 37.0322 766.104 36.6875C765.923 36.339 765.667 36.0644 765.337 35.8636C765.012 35.6629 764.629 35.5625 764.19 35.5625C763.712 35.5625 763.296 35.6799 762.94 35.9148C762.587 36.1458 762.315 36.4489 762.122 36.8239C761.932 37.1951 761.837 37.5985 761.837 38.0341V39.0284C761.837 39.6117 761.94 40.108 762.144 40.517C762.353 40.9261 762.642 41.2386 763.014 41.4545C763.385 41.6667 763.818 41.7727 764.315 41.7727C764.637 41.7727 764.93 41.7273 765.195 41.6364C765.461 41.5417 765.69 41.4015 765.883 41.2159C766.076 41.0303 766.224 40.8011 766.326 40.5284L767.934 40.8182C767.805 41.2917 767.574 41.7064 767.241 42.0625C766.911 42.4148 766.497 42.6894 765.997 42.8864C765.5 43.0795 764.934 43.1761 764.298 43.1761Z" fill="black" fill-opacity="0.8"/>
<rect x="838.052" width="122.611" height="73" rx="6" fill="#FFE352"/>
<path d="M873.759 43H869.992V31.3636H873.878C875.018 31.3636 875.997 31.5966 876.815 32.0625C877.634 32.5246 878.26 33.1894 878.696 34.0568C879.135 34.9205 879.355 35.9564 879.355 37.1648C879.355 38.3769 879.134 39.4186 878.69 40.2898C878.251 41.161 877.615 41.8314 876.781 42.3011C875.948 42.767 874.94 43 873.759 43ZM871.747 41.4659H873.662C874.548 41.4659 875.285 41.2992 875.872 40.9659C876.459 40.6288 876.899 40.142 877.19 39.5057C877.482 38.8655 877.628 38.0852 877.628 37.1648C877.628 36.2519 877.482 35.4773 877.19 34.8409C876.903 34.2045 876.473 33.7216 875.901 33.392C875.329 33.0625 874.618 32.8977 873.77 32.8977H871.747V41.4659ZM884.987 43.1761C884.128 43.1761 883.387 42.9924 882.766 42.625C882.148 42.2538 881.671 41.733 881.334 41.0625C881.001 40.3883 880.834 39.5985 880.834 38.6932C880.834 37.7992 881.001 37.0114 881.334 36.3295C881.671 35.6477 882.141 35.1155 882.743 34.733C883.349 34.3504 884.058 34.1591 884.868 34.1591C885.361 34.1591 885.838 34.2405 886.3 34.4034C886.762 34.5663 887.177 34.822 887.544 35.1705C887.912 35.5189 888.201 35.9716 888.414 36.5284C888.626 37.0814 888.732 37.7538 888.732 38.5455V39.1477H881.794V37.875H887.067C887.067 37.428 886.976 37.0322 886.794 36.6875C886.612 36.339 886.357 36.0644 886.027 35.8636C885.701 35.6629 885.319 35.5625 884.879 35.5625C884.402 35.5625 883.986 35.6799 883.629 35.9148C883.277 36.1458 883.004 36.4489 882.811 36.8239C882.622 37.1951 882.527 37.5985 882.527 38.0341V39.0284C882.527 39.6117 882.629 40.108 882.834 40.517C883.042 40.9261 883.332 41.2386 883.703 41.4545C884.075 41.6667 884.508 41.7727 885.004 41.7727C885.326 41.7727 885.62 41.7273 885.885 41.6364C886.15 41.5417 886.379 41.4015 886.573 41.2159C886.766 41.0303 886.914 40.8011 887.016 40.5284L888.624 40.8182C888.495 41.2917 888.264 41.7064 887.931 42.0625C887.601 42.4148 887.186 42.6894 886.686 42.8864C886.19 43.0795 885.624 43.1761 884.987 43.1761ZM897.657 34.2727L894.492 43H892.674L889.503 34.2727H891.327L893.537 40.9886H893.628L895.833 34.2727H897.657ZM902.542 43.1761C901.682 43.1761 900.941 42.9924 900.32 42.625C899.703 42.2538 899.225 41.733 898.888 41.0625C898.555 40.3883 898.388 39.5985 898.388 38.6932C898.388 37.7992 898.555 37.0114 898.888 36.3295C899.225 35.6477 899.695 35.1155 900.297 34.733C900.903 34.3504 901.612 34.1591 902.422 34.1591C902.915 34.1591 903.392 34.2405 903.854 34.4034C904.316 34.5663 904.731 34.822 905.098 35.1705C905.466 35.5189 905.756 35.9716 905.968 36.5284C906.18 37.0814 906.286 37.7538 906.286 38.5455V39.1477H899.348V37.875H904.621C904.621 37.428 904.53 37.0322 904.348 36.6875C904.167 36.339 903.911 36.0644 903.581 35.8636C903.256 35.6629 902.873 35.5625 902.434 35.5625C901.956 35.5625 901.54 35.6799 901.184 35.9148C900.831 36.1458 900.559 36.4489 900.366 36.8239C900.176 37.1951 900.081 37.5985 900.081 38.0341V39.0284C900.081 39.6117 900.184 40.108 900.388 40.517C900.597 40.9261 900.886 41.2386 901.258 41.4545C901.629 41.6667 902.063 41.7727 902.559 41.7727C902.881 41.7727 903.174 41.7273 903.439 41.6364C903.705 41.5417 903.934 41.4015 904.127 41.2159C904.32 41.0303 904.468 40.8011 904.57 40.5284L906.178 40.8182C906.049 41.2917 905.818 41.7064 905.485 42.0625C905.155 42.4148 904.741 42.6894 904.241 42.8864C903.744 43.0795 903.178 43.1761 902.542 43.1761ZM909.694 31.3636V43H907.995V31.3636H909.694ZM915.479 43.1761C914.661 43.1761 913.947 42.9886 913.337 42.6136C912.728 42.2386 912.254 41.714 911.917 41.0398C911.58 40.3655 911.411 39.5777 911.411 38.6761C911.411 37.7708 911.58 36.9792 911.917 36.3011C912.254 35.6231 912.728 35.0966 913.337 34.7216C913.947 34.3466 914.661 34.1591 915.479 34.1591C916.298 34.1591 917.012 34.3466 917.621 34.7216C918.231 35.0966 918.705 35.6231 919.042 36.3011C919.379 36.9792 919.548 37.7708 919.548 38.6761C919.548 39.5777 919.379 40.3655 919.042 41.0398C918.705 41.714 918.231 42.2386 917.621 42.6136C917.012 42.9886 916.298 43.1761 915.479 43.1761ZM915.485 41.75C916.015 41.75 916.455 41.6098 916.803 41.3295C917.152 41.0492 917.409 40.6761 917.576 40.2102C917.746 39.7443 917.832 39.2311 917.832 38.6705C917.832 38.1136 917.746 37.6023 917.576 37.1364C917.409 36.6667 917.152 36.2898 916.803 36.0057C916.455 35.7216 916.015 35.5795 915.485 35.5795C914.951 35.5795 914.508 35.7216 914.156 36.0057C913.807 36.2898 913.548 36.6667 913.377 37.1364C913.211 37.6023 913.127 38.1136 913.127 38.6705C913.127 39.2311 913.211 39.7443 913.377 40.2102C913.548 40.6761 913.807 41.0492 914.156 41.3295C914.508 41.6098 914.951 41.75 915.485 41.75ZM921.268 46.2727V34.2727H922.927V35.6875H923.069C923.168 35.5057 923.31 35.2955 923.495 35.0568C923.681 34.8182 923.938 34.6098 924.268 34.4318C924.597 34.25 925.033 34.1591 925.575 34.1591C926.279 34.1591 926.908 34.3371 927.461 34.6932C928.014 35.0492 928.448 35.5625 928.762 36.233C929.08 36.9034 929.24 37.7102 929.24 38.6534C929.24 39.5966 929.082 40.4053 928.768 41.0795C928.454 41.75 928.022 42.267 927.472 42.6307C926.923 42.9905 926.296 43.1705 925.592 43.1705C925.062 43.1705 924.628 43.0814 924.291 42.9034C923.957 42.7254 923.696 42.517 923.507 42.2784C923.317 42.0398 923.171 41.8277 923.069 41.642H922.967V46.2727H921.268ZM922.933 38.6364C922.933 39.25 923.022 39.7879 923.2 40.25C923.378 40.7121 923.635 41.0739 923.972 41.3352C924.31 41.5928 924.722 41.7216 925.211 41.7216C925.719 41.7216 926.143 41.5871 926.484 41.3182C926.825 41.0455 927.082 40.6761 927.257 40.2102C927.435 39.7443 927.524 39.2197 927.524 38.6364C927.524 38.0606 927.437 37.5436 927.262 37.0852C927.092 36.6269 926.834 36.2652 926.49 36C926.149 35.7348 925.722 35.6023 925.211 35.6023C924.719 35.6023 924.302 35.7292 923.961 35.983C923.624 36.2367 923.368 36.5909 923.194 37.0455C923.02 37.5 922.933 38.0303 922.933 38.6364Z" fill="black" fill-opacity="0.8"/>
<rect x="502.831" width="122.611" height="73" rx="6" fill="#FFE352"/>
<path d="M528.71 43V31.3636H535.926V32.875H530.466V36.4205H535.409V37.9261H530.466V43H528.71ZM540.894 43.1761C540.034 43.1761 539.293 42.9924 538.672 42.625C538.055 42.2538 537.578 41.733 537.24 41.0625C536.907 40.3883 536.74 39.5985 536.74 38.6932C536.74 37.7992 536.907 37.0114 537.24 36.3295C537.578 35.6477 538.047 35.1155 538.649 34.733C539.256 34.3504 539.964 34.1591 540.774 34.1591C541.267 34.1591 541.744 34.2405 542.206 34.4034C542.668 34.5663 543.083 34.822 543.451 35.1705C543.818 35.5189 544.108 35.9716 544.32 36.5284C544.532 37.0814 544.638 37.7538 544.638 38.5455V39.1477H537.701V37.875H542.973C542.973 37.428 542.882 37.0322 542.701 36.6875C542.519 36.339 542.263 36.0644 541.934 35.8636C541.608 35.6629 541.225 35.5625 540.786 35.5625C540.309 35.5625 539.892 35.6799 539.536 35.9148C539.184 36.1458 538.911 36.4489 538.718 36.8239C538.528 37.1951 538.434 37.5985 538.434 38.0341V39.0284C538.434 39.6117 538.536 40.108 538.74 40.517C538.949 40.9261 539.238 41.2386 539.61 41.4545C539.981 41.6667 540.415 41.7727 540.911 41.7727C541.233 41.7727 541.526 41.7273 541.792 41.6364C542.057 41.5417 542.286 41.4015 542.479 41.2159C542.672 41.0303 542.82 40.8011 542.922 40.5284L544.53 40.8182C544.401 41.2917 544.17 41.7064 543.837 42.0625C543.507 42.4148 543.093 42.6894 542.593 42.8864C542.096 43.0795 541.53 43.1761 540.894 43.1761ZM550.108 43.1761C549.249 43.1761 548.508 42.9924 547.887 42.625C547.269 42.2538 546.792 41.733 546.455 41.0625C546.122 40.3883 545.955 39.5985 545.955 38.6932C545.955 37.7992 546.122 37.0114 546.455 36.3295C546.792 35.6477 547.262 35.1155 547.864 34.733C548.47 34.3504 549.178 34.1591 549.989 34.1591C550.482 34.1591 550.959 34.2405 551.421 34.4034C551.883 34.5663 552.298 34.822 552.665 35.1705C553.033 35.5189 553.322 35.9716 553.535 36.5284C553.747 37.0814 553.853 37.7538 553.853 38.5455V39.1477H546.915V37.875H552.188C552.188 37.428 552.097 37.0322 551.915 36.6875C551.733 36.339 551.478 36.0644 551.148 35.8636C550.822 35.6629 550.44 35.5625 550 35.5625C549.523 35.5625 549.107 35.6799 548.75 35.9148C548.398 36.1458 548.125 36.4489 547.932 36.8239C547.743 37.1951 547.648 37.5985 547.648 38.0341V39.0284C547.648 39.6117 547.75 40.108 547.955 40.517C548.163 40.9261 548.453 41.2386 548.824 41.4545C549.196 41.6667 549.629 41.7727 550.125 41.7727C550.447 41.7727 550.741 41.7273 551.006 41.6364C551.271 41.5417 551.5 41.4015 551.694 41.2159C551.887 41.0303 552.035 40.8011 552.137 40.5284L553.745 40.8182C553.616 41.2917 553.385 41.7064 553.052 42.0625C552.722 42.4148 552.307 42.6894 551.807 42.8864C551.311 43.0795 550.745 43.1761 550.108 43.1761ZM558.829 43.1705C558.124 43.1705 557.495 42.9905 556.942 42.6307C556.393 42.267 555.961 41.75 555.647 41.0795C555.336 40.4053 555.181 39.5966 555.181 38.6534C555.181 37.7102 555.338 36.9034 555.653 36.233C555.971 35.5625 556.406 35.0492 556.959 34.6932C557.512 34.3371 558.139 34.1591 558.84 34.1591C559.382 34.1591 559.817 34.25 560.147 34.4318C560.48 34.6098 560.738 34.8182 560.92 35.0568C561.105 35.2955 561.249 35.5057 561.351 35.6875H561.454V31.3636H563.153V43H561.493V41.642H561.351C561.249 41.8277 561.101 42.0398 560.908 42.2784C560.719 42.517 560.458 42.7254 560.124 42.9034C559.791 43.0814 559.359 43.1705 558.829 43.1705ZM559.204 41.7216C559.692 41.7216 560.105 41.5928 560.442 41.3352C560.783 41.0739 561.041 40.7121 561.215 40.25C561.393 39.7879 561.482 39.25 561.482 38.6364C561.482 38.0303 561.395 37.5 561.221 37.0455C561.047 36.5909 560.791 36.2367 560.454 35.983C560.117 35.7292 559.7 35.6023 559.204 35.6023C558.692 35.6023 558.266 35.7348 557.925 36C557.584 36.2652 557.327 36.6269 557.153 37.0852C556.982 37.5436 556.897 38.0606 556.897 38.6364C556.897 39.2197 556.984 39.7443 557.158 40.2102C557.333 40.6761 557.59 41.0455 557.931 41.3182C558.276 41.5871 558.7 41.7216 559.204 41.7216ZM565.538 43V31.3636H567.237V35.6875H567.339C567.437 35.5057 567.579 35.2955 567.765 35.0568C567.951 34.8182 568.208 34.6098 568.538 34.4318C568.867 34.25 569.303 34.1591 569.844 34.1591C570.549 34.1591 571.178 34.3371 571.731 34.6932C572.284 35.0492 572.718 35.5625 573.032 36.233C573.35 36.9034 573.509 37.7102 573.509 38.6534C573.509 39.5966 573.352 40.4053 573.038 41.0795C572.723 41.75 572.291 42.267 571.742 42.6307C571.193 42.9905 570.566 43.1705 569.862 43.1705C569.331 43.1705 568.898 43.0814 568.56 42.9034C568.227 42.7254 567.966 42.517 567.776 42.2784C567.587 42.0398 567.441 41.8277 567.339 41.642H567.197V43H565.538ZM567.202 38.6364C567.202 39.25 567.291 39.7879 567.469 40.25C567.648 40.7121 567.905 41.0739 568.242 41.3352C568.579 41.5928 568.992 41.7216 569.481 41.7216C569.988 41.7216 570.413 41.5871 570.754 41.3182C571.094 41.0455 571.352 40.6761 571.526 40.2102C571.704 39.7443 571.793 39.2197 571.793 38.6364C571.793 38.0606 571.706 37.5436 571.532 37.0852C571.362 36.6269 571.104 36.2652 570.759 36C570.418 35.7348 569.992 35.6023 569.481 35.6023C568.988 35.6023 568.572 35.7292 568.231 35.983C567.894 36.2367 567.638 36.5909 567.464 37.0455C567.29 37.5 567.202 38.0303 567.202 38.6364ZM577.781 43.1932C577.228 43.1932 576.728 43.0909 576.281 42.8864C575.834 42.678 575.48 42.3769 575.218 41.983C574.961 41.589 574.832 41.1061 574.832 40.5341C574.832 40.0417 574.927 39.6364 575.116 39.3182C575.305 39 575.561 38.7481 575.883 38.5625C576.205 38.3769 576.565 38.2367 576.963 38.142C577.36 38.0473 577.766 37.9754 578.178 37.9261C578.701 37.8655 579.125 37.8163 579.451 37.7784C579.777 37.7367 580.014 37.6705 580.161 37.5795C580.309 37.4886 580.383 37.3409 580.383 37.1364V37.0966C580.383 36.6004 580.243 36.2159 579.963 35.9432C579.686 35.6705 579.273 35.5341 578.724 35.5341C578.152 35.5341 577.701 35.661 577.372 35.9148C577.046 36.1648 576.82 36.4432 576.695 36.75L575.099 36.3864C575.288 35.8561 575.565 35.428 575.928 35.1023C576.296 34.7727 576.718 34.5341 577.195 34.3864C577.673 34.2348 578.175 34.1591 578.701 34.1591C579.05 34.1591 579.419 34.2008 579.809 34.2841C580.203 34.3636 580.57 34.5114 580.911 34.7273C581.256 34.9432 581.538 35.2519 581.758 35.6534C581.978 36.0511 582.088 36.5682 582.088 37.2045V43H580.428V41.8068H580.36C580.25 42.0265 580.086 42.2424 579.866 42.4545C579.646 42.6667 579.364 42.8428 579.019 42.983C578.675 43.1231 578.262 43.1932 577.781 43.1932ZM578.15 41.8295C578.62 41.8295 579.021 41.7367 579.355 41.5511C579.692 41.3655 579.947 41.1231 580.122 40.8239C580.3 40.5208 580.389 40.197 580.389 39.8523V38.7273C580.328 38.7879 580.211 38.8447 580.036 38.8977C579.866 38.947 579.671 38.9905 579.451 39.0284C579.231 39.0625 579.017 39.0947 578.809 39.125C578.601 39.1515 578.427 39.1742 578.286 39.1932C577.957 39.2348 577.656 39.3049 577.383 39.4034C577.114 39.5019 576.898 39.6439 576.735 39.8295C576.576 40.0114 576.497 40.2538 576.497 40.5568C576.497 40.9773 576.652 41.2955 576.963 41.5114C577.273 41.7235 577.669 41.8295 578.15 41.8295ZM587.85 43.1761C587.006 43.1761 586.278 42.9848 585.669 42.6023C585.063 42.2159 584.597 41.6837 584.271 41.0057C583.945 40.3277 583.782 39.5511 583.782 38.6761C583.782 37.7898 583.949 37.0076 584.282 36.3295C584.616 35.6477 585.085 35.1155 585.691 34.733C586.297 34.3504 587.011 34.1591 587.833 34.1591C588.496 34.1591 589.087 34.2822 589.606 34.5284C590.125 34.7708 590.544 35.1117 590.862 35.5511C591.184 35.9905 591.375 36.5038 591.436 37.0909H589.782C589.691 36.6818 589.483 36.3295 589.157 36.0341C588.835 35.7386 588.403 35.5909 587.862 35.5909C587.388 35.5909 586.974 35.7159 586.617 35.9659C586.265 36.2121 585.991 36.5644 585.794 37.0227C585.597 37.4773 585.498 38.0152 585.498 38.6364C585.498 39.2727 585.595 39.822 585.788 40.2841C585.981 40.7462 586.254 41.1042 586.606 41.358C586.962 41.6117 587.381 41.7386 587.862 41.7386C588.184 41.7386 588.475 41.6799 588.737 41.5625C589.002 41.4413 589.224 41.2689 589.402 41.0455C589.583 40.822 589.71 40.553 589.782 40.2386H591.436C591.375 40.803 591.191 41.3068 590.885 41.75C590.578 42.1932 590.167 42.5417 589.652 42.7955C589.14 43.0492 588.54 43.1761 587.85 43.1761ZM594.639 40.0398L594.628 37.9659H594.923L598.4 34.2727H600.434L596.468 38.4773H596.201L594.639 40.0398ZM593.076 43V31.3636H594.775V43H593.076ZM598.588 43L595.463 38.8523L596.633 37.6648L600.673 43H598.588Z" fill="black" fill-opacity="0.8"/>
<rect width="122.611" height="73" rx="6" fill="#FFE352"/>
<path d="M40.6779 43V31.3636H47.8938V32.875H42.4335V36.4205H47.3767V37.9261H42.4335V43H40.6779ZM51.4394 31.3636V43H49.7405V31.3636H51.4394ZM57.225 43.1761C56.4068 43.1761 55.6928 42.9886 55.083 42.6136C54.4731 42.2386 53.9996 41.714 53.6625 41.0398C53.3254 40.3655 53.1568 39.5777 53.1568 38.6761C53.1568 37.7708 53.3254 36.9792 53.6625 36.3011C53.9996 35.6231 54.4731 35.0966 55.083 34.7216C55.6928 34.3466 56.4068 34.1591 57.225 34.1591C58.0432 34.1591 58.7572 34.3466 59.3671 34.7216C59.9769 35.0966 60.4504 35.6231 60.7875 36.3011C61.1246 36.9792 61.2932 37.7708 61.2932 38.6761C61.2932 39.5777 61.1246 40.3655 60.7875 41.0398C60.4504 41.714 59.9769 42.2386 59.3671 42.6136C58.7572 42.9886 58.0432 43.1761 57.225 43.1761ZM57.2307 41.75C57.761 41.75 58.2004 41.6098 58.5489 41.3295C58.8974 41.0492 59.1549 40.6761 59.3216 40.2102C59.4921 39.7443 59.5773 39.2311 59.5773 38.6705C59.5773 38.1136 59.4921 37.6023 59.3216 37.1364C59.1549 36.6667 58.8974 36.2898 58.5489 36.0057C58.2004 35.7216 57.761 35.5795 57.2307 35.5795C56.6966 35.5795 56.2534 35.7216 55.9011 36.0057C55.5527 36.2898 55.2932 36.6667 55.1227 37.1364C54.9561 37.6023 54.8727 38.1136 54.8727 38.6705C54.8727 39.2311 54.9561 39.7443 55.1227 40.2102C55.2932 40.6761 55.5527 41.0492 55.9011 41.3295C56.2534 41.6098 56.6966 41.75 57.2307 41.75ZM64.6399 43L62.0717 34.2727H63.8274L65.5376 40.6818H65.6229L67.3388 34.2727H69.0945L70.799 40.6534H70.8842L72.5831 34.2727H74.3388L71.7763 43H70.0433L68.2706 36.6989H68.1399L66.3672 43H64.6399ZM82.3148 36.4034L80.775 36.6761C80.7106 36.4792 80.6083 36.2917 80.4682 36.1136C80.3318 35.9356 80.1462 35.7898 79.9114 35.6761C79.6765 35.5625 79.3829 35.5057 79.0307 35.5057C78.5496 35.5057 78.1481 35.6136 77.8261 35.8295C77.5042 36.0417 77.3432 36.3163 77.3432 36.6534C77.3432 36.9451 77.4511 37.1799 77.667 37.358C77.8829 37.536 78.2314 37.6818 78.7125 37.7955L80.0989 38.1136C80.9019 38.2992 81.5004 38.5852 81.8943 38.9716C82.2883 39.358 82.4852 39.8598 82.4852 40.4773C82.4852 41 82.3337 41.4659 82.0307 41.875C81.7314 42.2803 81.3129 42.5985 80.775 42.8295C80.2409 43.0606 79.6216 43.1761 78.917 43.1761C77.9398 43.1761 77.1424 42.9678 76.525 42.5511C75.9076 42.1307 75.5288 41.5341 75.3886 40.7614L77.0307 40.5114C77.1329 40.9394 77.3432 41.2633 77.6614 41.483C77.9795 41.6989 78.3943 41.8068 78.9057 41.8068C79.4625 41.8068 79.9076 41.6913 80.2409 41.4602C80.5742 41.2254 80.7409 40.9394 80.7409 40.6023C80.7409 40.3295 80.6386 40.1004 80.4341 39.9148C80.2333 39.7292 79.9246 39.589 79.5079 39.4943L78.0307 39.1705C77.2163 38.9848 76.614 38.6894 76.2239 38.2841C75.8375 37.8788 75.6443 37.3655 75.6443 36.7443C75.6443 36.2292 75.7883 35.7784 76.0761 35.392C76.364 35.0057 76.7617 34.7045 77.2693 34.4886C77.7769 34.2689 78.3583 34.1591 79.0136 34.1591C79.9568 34.1591 80.6992 34.3636 81.2409 34.7727C81.7826 35.178 82.1405 35.7216 82.3148 36.4034Z" fill="black" fill-opacity="0.8"/>
<path d="M126.611 35C125.782 35 125.111 35.6716 125.111 36.5C125.111 37.3284 125.782 38 126.611 38V35ZM163.611 36.5L148.611 27.8397V45.1603L163.611 36.5ZM126.611 38H150.111V35H126.611V38Z" fill="#B3B3B3"/>
<path d="M294.221 35C293.392 35 292.721 35.6716 292.721 36.5C292.721 37.3284 293.392 38 294.221 38V35ZM331.221 36.5L316.221 27.8397V45.1603L331.221 36.5ZM294.221 38H317.721V35H294.221V38Z" fill="#B3B3B3"/>
<path d="M461.831 35C461.003 35 460.331 35.6716 460.331 36.5C460.331 37.3284 461.003 38 461.831 38V35ZM498.831 36.5L483.831 27.8397V45.1603L498.831 36.5ZM461.831 38H485.331V35H461.831V38Z" fill="#B3B3B3"/>
<path d="M629.441 35C628.613 35 627.941 35.6716 627.941 36.5C627.941 37.3284 628.613 38 629.441 38V35ZM666.441 36.5L651.441 27.8397V45.1603L666.441 36.5ZM629.441 38H652.941V35H629.441V38Z" fill="#B3B3B3"/>
<path d="M797.052 35C796.223 35 795.552 35.6716 795.552 36.5C795.552 37.3284 796.223 38 797.052 38V35ZM834.052 36.5L819.052 27.8397V45.1603L834.052 36.5ZM797.052 38H820.552V35H797.052V38Z" fill="#B3B3B3"/>
</svg>
