<svg width="224" height="221" viewBox="0 0 224 221" fill="none" xmlns="http://www.w3.org/2000/svg">
<circle cx="117.334" cy="74.5937" r="74.5937" fill="#FFFBF5"/>
<path d="M52.3021 153.111C60.1425 149.257 75.852 144.482 75.9663 156.221C76.1092 170.895 90.8157 181.164 103.547 170.024C116.279 158.885 87.6002 135.992 110.329 132.295C133.058 128.597 151.824 132.567 147.894 109.024C143.964 85.4809 140.69 77.4882 166.589 73.9896" stroke="#2D8BE2"/>
<path d="M64.0287 159.494C71.8691 155.639 87.5785 150.864 87.6929 162.604C87.8358 177.278 102.542 187.546 115.274 176.407C128.006 165.267 99.3268 142.375 122.056 138.677C144.784 134.979 163.551 138.949 159.621 115.406C155.691 91.8634 152.417 83.8707 178.316 80.3721" stroke="#2D8BE2" stroke-width="2"/>
<path d="M77.0975 165.766C84.9379 161.911 100.647 157.136 100.762 168.876C100.905 183.55 115.611 193.819 128.343 182.679C141.075 171.539 112.396 148.647 135.124 144.949C157.853 141.251 176.62 145.221 172.69 121.678C168.76 98.1355 165.486 90.1428 191.384 86.6442" stroke="#2D8BE2"/>
<rect y="99.9958" width="116.931" height="116.931" rx="3" fill="#F05A28"/>
</svg>
