<svg width="257" height="252" viewBox="0 0 257 252" fill="none" xmlns="http://www.w3.org/2000/svg">
<path d="M199.274 178.535L43.7157 163.149L134.82 36.1248L199.274 178.535Z" fill="#FFE352"/>
<circle cx="161.014" cy="74.6955" r="4.74283" fill="#FFFBF5"/>
<circle cx="161.014" cy="95.3409" r="4.74283" fill="#FFFBF5"/>
<circle cx="161.014" cy="115.986" r="4.74283" fill="#FFFBF5"/>
<circle cx="161.014" cy="136.631" r="4.74283" fill="#FFFBF5"/>
<circle cx="161.014" cy="157.277" r="4.74283" fill="#FFFBF5"/>
<circle cx="183.825" cy="74.6955" r="4.74283" fill="#FFFBF5"/>
<circle cx="183.825" cy="95.3409" r="4.74283" fill="#FFFBF5"/>
<circle cx="183.825" cy="115.986" r="4.74283" fill="#FFFBF5"/>
<circle cx="183.825" cy="136.631" r="4.74283" fill="#FFFBF5"/>
<circle cx="183.825" cy="157.277" r="4.74283" fill="#FFFBF5"/>
<circle cx="206.636" cy="74.6955" r="4.74283" fill="#FFFBF5"/>
<circle cx="206.636" cy="95.3409" r="4.74283" fill="#FFFBF5"/>
<circle cx="206.636" cy="115.986" r="4.74283" fill="#FFFBF5"/>
<circle cx="206.636" cy="136.631" r="4.74283" fill="#FFFBF5"/>
<circle cx="206.636" cy="157.277" r="4.74283" fill="#FFFBF5"/>
<circle cx="229.447" cy="74.6955" r="4.74283" fill="#FFFBF5"/>
<circle cx="229.447" cy="95.3409" r="4.74283" fill="#FFFBF5"/>
<circle cx="229.447" cy="115.986" r="4.74283" fill="#FFFBF5"/>
<circle cx="229.447" cy="136.631" r="4.74283" fill="#FFFBF5"/>
<circle cx="229.447" cy="157.277" r="4.74283" fill="#FFFBF5"/>
<circle cx="252.258" cy="74.6955" r="4.74283" fill="#FFFBF5"/>
<circle cx="252.258" cy="95.3409" r="4.74283" fill="#FFFBF5"/>
<circle cx="252.258" cy="115.986" r="4.74283" fill="#FFFBF5"/>
<circle cx="252.258" cy="136.631" r="4.74283" fill="#FFFBF5"/>
<circle cx="252.258" cy="157.277" r="4.74283" fill="#FFFBF5"/>
<line x1="56" y1="63.5" x2="125" y2="63.5" stroke="black" stroke-width="9"/>
</svg>
