<svg width="496" height="504" viewBox="0 0 496 504" fill="none" xmlns="http://www.w3.org/2000/svg">
<path fill-rule="evenodd" clip-rule="evenodd" d="M248 0C111.036 0 0 112.827 0 252C0 391.173 111.036 504 248 504C384.964 504 496 391.173 496 252C496 112.827 384.964 0 248 0ZM331.576 199.469C335.683 195.149 337.955 189.362 337.904 183.355C337.853 177.348 335.481 171.603 331.301 167.355C327.121 163.108 321.467 160.698 315.555 160.646C309.644 160.594 303.949 162.903 299.697 167.076L248 219.607L196.303 167.076C194.224 164.888 191.736 163.143 188.985 161.942C186.234 160.741 183.276 160.109 180.282 160.083C177.289 160.057 174.32 160.636 171.549 161.788C168.779 162.94 166.261 164.641 164.145 166.792C162.028 168.943 160.354 171.501 159.22 174.316C158.086 177.132 157.516 180.148 157.542 183.19C157.568 186.232 158.19 189.238 159.372 192.033C160.553 194.828 162.271 197.356 164.424 199.469L216.121 252L164.424 304.531C162.271 306.644 160.553 309.172 159.372 311.967C158.19 314.762 157.568 317.768 157.542 320.81C157.516 323.852 158.086 326.868 159.22 329.684C160.354 332.499 162.028 335.057 164.145 337.208C166.261 339.359 168.779 341.06 171.549 342.212C174.32 343.364 177.289 343.943 180.282 343.917C183.276 343.891 186.234 343.259 188.985 342.058C191.736 340.857 194.224 339.112 196.303 336.924L248 284.393L299.697 336.924C303.949 341.097 309.644 343.406 315.555 343.354C321.467 343.302 327.121 340.892 331.301 336.645C335.481 332.397 337.853 326.651 337.904 320.645C337.955 314.638 335.683 308.851 331.576 304.531L279.879 252L331.576 199.469Z" fill="#FD916B"/>
</svg>
